custom-analysis
version=1
nRows=12
nColumns=42
inDegrees=no

This file contains tibia displacement and acting force.

Units are S.I. units (seconds, meters, Newtons, ...)
Angles are in degrees.

endheader
time	APT	SIT	knee_angle	aACL_R_force	pACL_R_force	aPCL_R_force	pPCL_R_force	aMCL_R_force	mMCL_R_force	pMCL_R_force	aLCL_R_force	mLCL_R_force	pLCL_R_force	aACL_R_length	pACL_R_length	aPCL_R_length	pPCL_R_length	aMCL_R_length	mMCL_R_length	pMCL_R_length	aLCL_R_length	mLCL_R_length	pLCL_R_length	aACL_R_strain	pACL_R_strain	aPCL_R_strain	pPCL_R_strain	aMCL_R_strain	mMCL_R_strain	pMCL_R_strain	aLCL_R_strain	mLCL_R_strain	pLCL_R_strain	femur_lat_meniscii_force_r	femur_lat_meniscii_torque_r	femur_med_meniscii_force_r	femur_med_meniscii_torque_r	femur_lat_tibia_force_r	femur_lat_tibia_torque_r	femur_med_tibia_force_r	femur_med_tibia_torque_r
      0.72778190	      0.00292712	      0.00000706	     30.00011112	     53.97302487	     23.43271274	     24.54704252	      6.61009427	      0.00000000	      0.00000000	      0.00000000	      0.09742591	      0.00000000	      0.00000000	      0.03363608	      0.02661836	      0.03168320	      0.03031997	      0.05723843	      0.05911908	      0.05823287	      0.05611876	      0.05288342	      0.04917626	      0.08484238	      0.04967352	      0.01890632	      0.00771656	     -0.01358979	     -0.01127918	     -0.04108699	      0.00252890	     -0.06099543	     -0.06049433	     81.71844799	     23.85566888	     72.40888371	     23.97177114	      0.00000000	      0.00000000	      4.79874044	      0.11630039
      0.72844094	      0.00292713	      0.00000716	     30.00011112	     53.96183452	     23.42145649	     24.53222625	      6.58242718	      0.00000000	      0.00000000	      0.00000000	      0.07708572	      0.00000000	      0.00000000	      0.03363604	      0.02661832	      0.03168312	      0.03031989	      0.05723826	      0.05911891	      0.05823270	      0.05611878	      0.05288344	      0.04917628	      0.08484104	      0.04967223	      0.01890388	      0.00771365	     -0.01359269	     -0.01128202	     -0.04108975	      0.00252922	     -0.06099509	     -0.06049398	     81.75828572	     23.86823001	     72.47387514	     23.99262364	      0.00000000	      0.00000000	      4.85754628	      0.11767436
      0.72909998	      0.00292712	      0.00000721	     30.00011112	     53.99102678	     23.45351610	     24.56927037	      6.68216943	      0.00000000	      0.00000000	      0.00000000	      0.18167447	      0.00000000	      0.00000000	      0.03363603	      0.02661832	      0.03168310	      0.03031985	      0.05723813	      0.05911878	      0.05823258	      0.05611885	      0.05288351	      0.04917635	      0.08484065	      0.04967218	      0.01890305	      0.00771239	     -0.01359480	     -0.01128410	     -0.04109179	      0.00253047	     -0.06099382	     -0.06049263	     81.57169433	     23.80832404	     72.32770418	     23.94414871	      0.00000000	      0.00000000	      4.89098291	      0.11844957
      0.72942950	      0.00292711	      0.00000721	     30.00011112	     53.99388059	     23.45672950	     24.57165839	      6.68741722	      0.00000000	      0.00000000	      0.00000000	      0.18902639	      0.00000000	      0.00000000	      0.03363603	      0.02661833	      0.03168310	      0.03031985	      0.05723809	      0.05911874	      0.05823253	      0.05611890	      0.05288357	      0.04917641	      0.08484086	      0.04967267	      0.01890316	      0.00771230	     -0.01359558	     -0.01128486	     -0.04109254	      0.00253141	     -0.06099288	     -0.06049162	     81.55643391	     23.80363681	     72.32306623	     23.94254531	      0.00000000	      0.00000000	      4.90332849	      0.11873627
      0.73002467	      0.00292709	      0.00000724	     30.00011112	     53.98342942	     23.44570455	     24.55506869	      6.64431472	      0.00000000	      0.00000000	      0.00000000	      0.15089633	      0.00000000	      0.00000000	      0.03363604	      0.02661835	      0.03168309	      0.03031983	      0.05723800	      0.05911864	      0.05823244	      0.05611899	      0.05288365	      0.04917649	      0.08484101	      0.04967326	      0.01890296	      0.00771172	     -0.01359719	     -0.01128645	     -0.04109409	      0.00253292	     -0.06099136	     -0.06049000	     81.62137995	     23.82492952	     72.40032821	     23.96783024	      0.00000000	      0.00000000	      4.93329471	      0.11943511
      0.73300055	      0.00292708	      0.00000745	     30.00011112	     53.97703280	     23.44022990	     24.52865355	      6.59112138	      0.00000000	      0.00000000	      0.00000000	      0.12951582	      0.00000000	      0.00000000	      0.03363601	      0.02661837	      0.03168297	      0.03031965	      0.05723742	      0.05911806	      0.05823186	      0.05611935	      0.05288402	      0.04917685	      0.08484019	      0.04967413	      0.01889892	      0.00770562	     -0.01360710	     -0.01129618	     -0.04110359	      0.00253934	     -0.06098487	     -0.06048306	     81.65676291	     23.83839989	     72.54253387	     24.01367195	      0.00000000	      0.00000000	      5.11665553	      0.12370319
      0.73358100	      0.00292708	      0.00000750	     30.00011112	     53.98417799	     23.44821952	     24.53401075	      6.60983633	      0.00000000	      0.00000000	      0.00000000	      0.15487193	      0.00000000	      0.00000000	      0.03363601	      0.02661838	      0.03168293	      0.03031960	      0.05723730	      0.05911794	      0.05823174	      0.05611941	      0.05288409	      0.04917692	      0.08484004	      0.04967429	      0.01889779	      0.00770406	     -0.01360921	     -0.01129826	     -0.04110561	      0.00254054	     -0.06098365	     -0.06048176	     81.61801741	     23.82433048	     72.52532565	     24.00779692	      0.00000000	      0.00000000	      5.15483868	      0.12459083
      0.73648323	      0.00292715	      0.00000770	     30.00011112	     54.04528510	     23.51534090	     24.58881457	      6.77364516	      0.00000000	      0.00000000	      0.00000000	      0.35014979	      0.00000000	      0.00000000	      0.03363606	      0.02661847	      0.03168277	      0.03031938	      0.05723671	      0.05911734	      0.05823115	      0.05611981	      0.05288449	      0.04917732	      0.08484159	      0.04967796	      0.01889268	      0.00769677	     -0.01361928	     -0.01130820	     -0.04111529	      0.00254758	     -0.06097649	     -0.06047413	     81.26440737	     23.71284719	     72.31714670	     23.93847742	      0.00000000	      0.00000000	      5.33271179	      0.12872558
      0.73791780	      0.00292723	      0.00000788	     30.00011112	     54.07676661	     23.55024097	     24.62062192	      6.88043671	      0.00000000	      0.00000000	      0.00000000	      0.47451221	      0.00000000	      0.00000000	      0.03363604	      0.02661847	      0.03168261	      0.03031918	      0.05723634	      0.05911696	      0.05823078	      0.05611993	      0.05288462	      0.04917745	      0.08484116	      0.04967820	      0.01888738	      0.00769028	     -0.01362572	     -0.01131455	     -0.04112145	      0.00254985	     -0.06097412	     -0.06047162	     81.04866061	     23.64391075	     72.18965004	     23.89569930	      0.00000000	      0.00000000	      5.45870027	      0.13164405
      0.73935238	      0.00292718	      0.00000752	     30.00011112	     54.09728111	     23.57009417	     24.63187974	      6.85415843	      0.00000000	      0.00000000	      0.00000000	      0.43962768	      0.00000000	      0.00000000	      0.03363640	      0.02661886	      0.03168295	      0.03031949	      0.05723648	      0.05911710	      0.05823091	      0.05612059	      0.05288528	      0.04917811	      0.08485253	      0.04969349	      0.01889839	      0.00770062	     -0.01362338	     -0.01131231	     -0.04111929	      0.00256162	     -0.06096238	     -0.06045904	     81.06069716	     23.65132414	     72.19793236	     23.89998535	      0.00000000	      0.00000000	      5.36932974	      0.12955599
      0.74652526	      0.00292721	      0.00000629	     30.00011112	     54.11153247	     23.57988703	     24.66240359	      6.75823214	      0.00000000	      0.00000000	      0.00000000	      0.26463212	      0.00000000	      0.00000000	      0.03363787	      0.02662048	      0.03168401	      0.03032041	      0.05723670	      0.05911730	      0.05823111	      0.05612316	      0.05288787	      0.04918068	      0.08490012	      0.04975735	      0.01893248	      0.00773115	     -0.01361953	     -0.01130886	     -0.04111597	      0.00260746	     -0.06091651	     -0.06040997	     81.29327057	     23.72557732	     72.32953767	     23.94424365	      0.00000000	      0.00000000	      5.14852419	      0.12437232
      0.74807164	      0.00292723	      0.00000617	     30.00011112	     54.11367922	     23.58202265	     24.67466274	      6.77330850	      0.00000000	      0.00000000	      0.00000000	      0.26671392	      0.00000000	      0.00000000	      0.03363806	      0.02662070	      0.03168411	      0.03032048	      0.05723662	      0.05911722	      0.05823102	      0.05612354	      0.05288826	      0.04918106	      0.08490632	      0.04976597	      0.01893556	      0.00773340	     -0.01362096	     -0.01131031	     -0.04111739	      0.00261432	     -0.06090962	     -0.06040262	     81.26246302	     23.71537760	     72.32431609	     23.94197111	      0.00000000	      0.00000000	      5.15568302	      0.12453266
